<svg width="56" height="52" viewBox="0 0 56 52" fill="none" xmlns="http://www.w3.org/2000/svg">
<path fill-rule="evenodd" clip-rule="evenodd" d="M5.20272 10.3631L16.6606 0L16.6242 0.141187L38.1813 5.66863L38.2187 5.52475L38.3226 5.70486L38.35 5.7119L38.3428 5.73988L47.379 21.4091L35.1061 18.1804L35.1026 18.1939L13.4194 12.5526L13.419 12.554L5.20272 10.3631ZM13.3574 14.471L18.6286 27.8721L18.6433 27.8155L40.1807 33.4189L40.148 33.5444L40.3259 33.4567L40.3492 33.4627L40.3545 33.4426L55.87 25.7909L43.1909 22.5404L43.1939 22.5288L21.488 16.8816L21.5027 16.8249L13.3574 14.471ZM0.443561 11.0872L11.076 13.8915L13.7126 21.6446L13.7401 21.6665L21.4967 42.6166L28.4863 52.0003L11.0391 46.6283L10.9472 46.6623L10.9263 46.5935L10.765 46.5439L10.8964 46.4953L0.098917 11.0487L0 10.9702L0.0815758 10.9917L0.00416609 10.7376L0.443561 11.0872Z" fill="#D9D9D9"/>
</svg>
